<svg width="5414" height="2748" viewBox="0 0 5414 2748" fill="none" xmlns="http://www.w3.org/2000/svg">
<path d="M5060.25 1312C5060.25 1269.5 5051.5 1237.42 5034 1215.75C5016.5 1194.09 4989.42 1183.25 4952.75 1183.25C4927.75 1183.25 4905.67 1188.67 4886.5 1199.5C4867.33 1209.5 4852.33 1224.5 4841.5 1244.5C4830.67 1263.67 4825.25 1286.17 4825.25 1312V1662H4690.25V1087H4825.25V1175.75C4843.58 1141.59 4866.92 1116.17 4895.25 1099.5C4924.42 1082.84 4959 1074.5 4999 1074.5C5064 1074.5 5113.58 1094.5 5147.75 1134.5C5181.92 1173.67 5199 1227.84 5199 1297V1662H5060.25V1312Z" fill="#0E0E0E"/>
<mask id="mask0_27_58" style="mask-type:alpha" maskUnits="userSpaceOnUse" x="2949" y="1830" width="2465" height="918">
<path d="M2949 1830H5414V2747.5H2949V1830Z" fill="#1E1E1E"/>
</mask>
<g mask="url(#mask0_27_58)">
<path d="M3725.67 780.34C3710.07 802.7 3689.26 821.699 3664.69 836.003C3640.12 850.307 3612.39 859.569 3583.45 863.14C3550.52 867.378 3517.85 871.93 3485.17 876.875C3393.91 890.609 3329 963.364 3329 1047.11V1708.41C3329 1755.25 3349.54 1800.16 3386.11 1833.28C3422.68 1866.4 3472.28 1885 3524 1885H4824C4875.72 1885 4925.32 1866.4 4961.89 1833.28C4998.46 1800.16 5019 1755.25 5019 1708.41V1047.11C5019 963.364 4954 890.609 4862.83 876.875C4830.13 871.941 4797.37 867.362 4764.55 863.14C4735.62 859.558 4707.91 850.291 4683.36 835.987C4658.81 821.684 4638.01 802.691 4622.41 780.34L4551.17 677.055C4535.17 653.517 4513.15 633.817 4486.96 619.623C4460.77 605.429 4431.19 597.158 4400.72 595.51C4249.68 588.163 4098.32 588.163 3947.28 595.51C3916.81 597.158 3887.23 605.429 3861.04 619.623C3834.85 633.817 3812.83 653.517 3796.83 677.055L3725.67 780.34Z" stroke="#0E0E0E" strokeWidth="105" strokeLinecap="round" strokeLinejoin="round"/>
</g>
<mask id="mask1_27_58" style="mask-type:alpha" maskUnits="userSpaceOnUse" x="2949" y="0" width="2465" height="918">
<path d="M2949 0H5414V917.5H2949V0Z" fill="#1E1E1E"/>
</mask>
<g mask="url(#mask1_27_58)">
<path d="M3725.67 780.34C3710.07 802.7 3689.26 821.699 3664.69 836.003C3640.12 850.307 3612.39 859.569 3583.45 863.14C3550.52 867.378 3517.85 871.93 3485.17 876.875C3393.91 890.609 3329 963.364 3329 1047.11V1708.41C3329 1755.25 3349.54 1800.16 3386.11 1833.28C3422.68 1866.4 3472.28 1885 3524 1885H4824C4875.72 1885 4925.32 1866.4 4961.89 1833.28C4998.46 1800.16 5019 1755.25 5019 1708.41V1047.11C5019 963.364 4954 890.609 4862.83 876.875C4830.13 871.941 4797.37 867.362 4764.55 863.14C4735.62 859.558 4707.91 850.291 4683.36 835.987C4658.81 821.684 4638.01 802.691 4622.41 780.34L4551.17 677.055C4535.17 653.517 4513.15 633.817 4486.96 619.623C4460.77 605.429 4431.19 597.158 4400.72 595.51C4249.68 588.163 4098.32 588.163 3947.28 595.51C3916.81 597.158 3887.23 605.429 3861.04 619.623C3834.85 633.817 3812.83 653.517 3796.83 677.055L3725.67 780.34Z" stroke="#0E0E0E" strokeWidth="105" strokeLinecap="round" strokeLinejoin="round"/>
</g>
<circle cx="4551.5" cy="987.5" r="57.5" fill="#C30D0D"/>
<path d="M4167.88 1142.66L3860.75 1224.65C3844.75 1228.93 3831.06 1213.08 3838.67 1198.36C3890.19 1098.72 3966.19 1043.26 4048 1014.45C4054.45 1012.17 4061.59 1013.58 4066.86 1017.94L4175.48 1107.94C4187.99 1118.31 4183.58 1138.47 4167.88 1142.66Z" fill="#C30D0D"/>
<path d="M4363.62 1250.71L4139.05 1025.73C4127.34 1014 4134.22 994.218 4150.77 993.451C4262.83 988.255 4348.86 1026.35 4414.71 1082.78C4419.91 1087.23 4422.27 1094.12 4421.12 1100.87L4397.49 1239.93C4394.77 1255.95 4375.09 1262.21 4363.62 1250.71Z" fill="#C30D0D"/>
<path d="M4368.86 1470.29L4448.73 1162.61C4452.89 1146.57 4473.43 1142.46 4482.49 1156.33C4543.84 1250.24 4554.68 1343.7 4539.48 1429.09C4538.28 1435.82 4533.54 1441.35 4527.15 1443.79L4395.33 1494.01C4380.15 1499.79 4364.77 1486.02 4368.86 1470.29Z" fill="#C30D0D"/>
<path d="M4173.09 1590.3L4480.21 1508.31C4496.22 1504.04 4509.91 1519.89 4502.3 1534.61C4450.77 1634.24 4374.77 1689.7 4292.97 1718.52C4286.52 1720.79 4279.37 1719.39 4274.1 1715.02L4165.49 1625.03C4152.98 1614.66 4157.39 1594.49 4173.09 1590.3Z" fill="#C30D0D"/>
<path d="M3976.28 1479.13L4200.85 1704.11C4212.55 1715.84 4205.67 1735.62 4189.12 1736.39C4077.07 1741.58 3991.04 1703.49 3925.19 1647.06C3919.99 1642.61 3917.63 1635.72 3918.78 1628.97L3942.41 1489.91C3945.13 1473.89 3964.81 1467.63 3976.28 1479.13Z" fill="#C30D0D"/>
<path d="M3976.2 1256.99L3893.64 1563.96C3889.34 1579.96 3868.77 1583.89 3859.83 1569.94C3799.3 1475.5 3789.27 1381.95 3805.22 1296.7C3806.47 1289.98 3811.26 1284.49 3817.68 1282.11L3949.93 1233.04C3965.16 1227.39 3980.42 1241.3 3976.2 1256.99Z" fill="#C30D0D"/>
<path fill-rule="evenodd" clip-rule="evenodd" d="M1773.62 824.964V1662H1906.12V1370.53L2143.62 1662H2307.37L2034.87 1324.5L2282.37 1087H2117.37L1906.12 1288.7V687.002H1903.07C1826.41 687.399 1774.44 736.822 1773.62 824.964ZM822.75 1525.76V1297C822.75 1249.5 816.083 1209.09 802.75 1175.75C789.417 1142.42 769 1117.42 741.5 1100.75C714.833 1083.25 681.083 1074.5 640.25 1074.5C601.083 1074.5 566.083 1083.25 535.25 1100.75C505.25 1118.25 480.25 1143.67 460.25 1177C447.75 1143.67 427.333 1118.25 399 1100.75C371.5 1083.25 336.5 1074.5 294 1074.5C257.333 1074.5 225.25 1082.84 197.75 1099.5C171.083 1115.34 149.417 1139.09 132.75 1170.75V1087H0.25V1662H132.75V1312C132.75 1284.5 137.333 1261.17 146.5 1242C155.667 1222.84 168.583 1208.25 185.25 1198.25C202.75 1188.25 223.167 1183.25 246.5 1183.25C279.833 1183.25 304 1194.09 319 1215.75C334.833 1236.59 342.75 1268.67 342.75 1312V1662H477.75V1312C477.75 1284.5 482.333 1261.17 491.5 1242C501.5 1222.84 514.833 1208.25 531.5 1198.25C549 1188.25 569 1183.25 591.5 1183.25C624.833 1183.25 649 1194.09 664 1215.75C679.833 1236.59 687.75 1268.67 687.75 1312V1662H698.109C767.586 1654.62 821.567 1606.59 822.75 1525.76ZM3019.11 1309.95C3023.41 1369.88 2988.19 1405.7 2904.03 1405.7C2904.26 1405.72 2904.49 1405.74 2904.73 1405.75H2573.44C2576.08 1432.11 2581.75 1455.45 2590.46 1475.75C2602.96 1504.09 2621.29 1525.75 2645.46 1540.75C2670.46 1555.75 2700.46 1563.25 2735.46 1563.25C2772.12 1563.25 2804.21 1555.75 2831.71 1540.75C2859.21 1525.75 2882.12 1502.84 2900.46 1472L3016.71 1519.5C2986.71 1571.17 2947.96 1609.92 2900.46 1635.75C2852.96 1661.59 2795.87 1674.5 2729.21 1674.5C2670.87 1674.5 2619.21 1662 2574.21 1637C2530.04 1612 2495.87 1577 2471.71 1532C2447.54 1487 2435.46 1434.5 2435.46 1374.5C2435.46 1313.67 2447.54 1260.75 2471.71 1215.75C2496.71 1170.75 2531.71 1136.17 2576.71 1112C2621.71 1087 2674.62 1074.5 2735.46 1074.5C2796.29 1074.5 2847.96 1086.17 2890.46 1109.5C2932.96 1132.84 2965.46 1166.59 2987.96 1210.75C3003.55 1239.72 3013.94 1272.79 3019.11 1309.95ZM2577.09 1313.25C2580.44 1295.26 2585.31 1279.01 2591.71 1264.5C2604.21 1236.17 2622.54 1214.5 2646.71 1199.5C2670.87 1184.5 2700.04 1177 2734.21 1177C2762.54 1177 2787.12 1183.25 2807.96 1195.75C2829.62 1208.25 2846.29 1225.75 2857.96 1248.25C2868.38 1267.02 2874.46 1288.69 2876.19 1313.25H2577.09ZM1282.33 1801.99C1222.33 1886.99 1160.74 1937 1081.5 1937L1079.02 1937L1229.02 1594.5L997.77 1087H1152.77L1303.7 1460.72L1452.77 1087H1597.77L1282.33 1801.99ZM1276.06 1816.2L1222.75 1937L1222.77 1937L1276.06 1816.2ZM3333.06 1525.75C3314.73 1510.75 3296.4 1493.25 3278.06 1473.25L3199.31 1552C3215.98 1573.67 3236.4 1594.5 3260.56 1614.5C3285.56 1633.67 3314.31 1649.5 3346.81 1662C3380.15 1673.67 3416.4 1679.5 3455.56 1679.5C3518.9 1679.5 3568.9 1663.25 3605.56 1630.75C3643.06 1597.42 3661.81 1553.67 3661.81 1499.5C3661.81 1464.5 3653.48 1436.17 3636.81 1414.5C3620.98 1392.84 3599.73 1374.5 3573.06 1359.5C3546.4 1344.5 3517.23 1330.75 3485.56 1318.25C3462.23 1309.09 3440.98 1300.34 3421.81 1292C3403.48 1283.67 3388.48 1274.5 3376.81 1264.5C3365.98 1253.67 3360.56 1241.59 3360.56 1228.25C3360.56 1212.42 3366.81 1200.34 3379.31 1192C3391.81 1183.67 3407.65 1179.5 3426.81 1179.5C3455.15 1179.5 3482.65 1186.59 3509.31 1200.75C3535.98 1214.92 3558.9 1233.25 3578.06 1255.75L3653.06 1175.75C3637.23 1156.59 3618.06 1139.5 3595.56 1124.5C3573.06 1109.5 3547.65 1097.42 3519.31 1088.25C3491.81 1079.09 3462.23 1074.5 3430.56 1074.5C3395.56 1074.5 3362.65 1080.34 3331.81 1092C3301.81 1102.84 3277.65 1119.92 3259.31 1143.25C3241.81 1166.59 3233.06 1195.75 3233.06 1230.75C3233.06 1264.92 3240.98 1293.25 3256.81 1315.75C3273.48 1338.25 3294.31 1356.59 3319.31 1370.75C3345.15 1384.09 3370.98 1395.75 3396.81 1405.75C3422.65 1414.92 3445.15 1424.09 3464.31 1433.25C3483.48 1441.59 3498.48 1452 3509.31 1464.5C3520.15 1476.17 3525.56 1490.34 3525.56 1507C3525.56 1526.17 3518.48 1541.17 3504.31 1552C3490.98 1562.84 3472.23 1568.25 3448.06 1568.25C3428.9 1568.25 3409.73 1564.92 3390.56 1558.25C3371.4 1550.75 3352.23 1539.92 3333.06 1525.75Z" fill="#0E0E0E"/>
</svg>
