<svg width="611" height="4699" viewBox="0 0 611 4699" fill="none" xmlns="http://www.w3.org/2000/svg">
<path d="M85.9219 496.438H525.078M85.9219 496.438C78.3259 496.438 71.0411 493.42 65.6699 488.049C60.2987 482.678 57.2812 475.393 57.2812 467.797M85.9219 496.438H124.109C139.919 496.438 152.75 483.607 152.75 467.797M525.078 496.438C540.888 496.438 553.719 483.607 553.719 467.797M525.078 496.438H486.891C479.295 496.438 472.01 493.42 466.639 488.049C461.267 482.678 458.25 475.393 458.25 467.797M57.2812 467.797L57.2812 143.203M57.2812 467.797L57.2812 429.609C57.2812 413.8 70.1123 400.969 85.9219 400.969M152.75 467.797V334.141M152.75 467.797C152.75 483.607 165.581 496.438 181.391 496.438H429.609C445.419 496.438 458.25 483.607 458.25 467.797M152.75 467.797V429.609C152.75 413.8 139.919 400.969 124.109 400.969M57.2812 143.203C57.2812 127.394 70.1123 114.562 85.9219 114.562M57.2812 143.203L57.2812 181.391C57.2812 197.2 70.1123 210.031 85.9219 210.031M85.9219 400.969C70.1123 400.969 57.2812 388.138 57.2812 372.328V334.141C57.2812 318.331 70.1123 305.5 85.9219 305.5M85.9219 400.969H124.109M553.719 467.797V143.203M553.719 467.797V429.609C553.719 413.8 540.888 400.969 525.078 400.969M553.719 143.203C553.719 127.394 540.888 114.563 525.078 114.563M553.719 143.203V181.391C553.719 197.2 540.888 210.031 525.078 210.031M525.078 400.969C540.888 400.969 553.719 388.138 553.719 372.328V334.141C553.719 318.331 540.888 305.5 525.078 305.5M525.078 400.969H486.891M458.25 467.797V334.141M458.25 467.797V429.609C458.25 413.8 471.081 400.969 486.891 400.969M525.078 114.563L85.9219 114.562M525.078 114.563H486.891C471.081 114.563 458.25 127.394 458.25 143.203M85.9219 114.562H124.109C139.919 114.562 152.75 127.394 152.75 143.203M458.25 143.203C458.25 127.394 445.419 114.563 429.609 114.563L181.391 114.562C165.581 114.562 152.75 127.394 152.75 143.203M458.25 143.203V181.391C458.25 188.987 461.267 196.271 466.639 201.643C472.01 207.014 479.295 210.031 486.891 210.031M458.25 143.203V276.859M525.078 210.031H486.891M525.078 210.031C540.888 210.031 553.719 222.862 553.719 238.672V276.859C553.719 292.669 540.888 305.5 525.078 305.5M152.75 143.203V181.391C152.75 197.2 139.919 210.031 124.109 210.031M152.75 143.203V276.859M85.9219 210.031H124.109M85.9219 210.031C70.1123 210.031 57.2812 222.862 57.2812 238.672V276.859C57.2812 292.669 70.1123 305.5 85.9219 305.5M124.109 210.031C139.919 210.031 152.75 222.862 152.75 238.672V276.859M85.9219 305.5H124.109M152.75 276.859C152.75 284.455 155.767 291.74 161.139 297.111C166.51 302.483 173.795 305.5 181.391 305.5M152.75 276.859C152.75 292.669 139.919 305.5 124.109 305.5M486.891 210.031C471.081 210.031 458.25 222.862 458.25 238.672V276.859M458.25 276.859C458.25 292.669 445.419 305.5 429.609 305.5M458.25 276.859C458.25 292.669 471.081 305.5 486.891 305.5M525.078 305.5H486.891M181.391 305.5H429.609M181.391 305.5C165.581 305.5 152.75 318.331 152.75 334.141M429.609 305.5C445.419 305.5 458.25 318.331 458.25 334.141M152.75 334.141V372.328C152.75 388.138 139.919 400.969 124.109 400.969M152.75 334.141C152.75 318.331 139.919 305.5 124.109 305.5M486.891 305.5C471.081 305.5 458.25 318.331 458.25 334.141M458.25 334.141V372.328C458.25 388.138 471.081 400.969 486.891 400.969" stroke="#0E0E0E" stroke-width="38.1875" stroke-linecap="round" stroke-linejoin="round"/>
<path d="M85.9219 1006.44H525.078M85.9219 1006.44C78.3259 1006.44 71.0411 1003.42 65.6699 998.049C60.2987 992.678 57.2812 985.393 57.2812 977.797M85.9219 1006.44H124.109C139.919 1006.44 152.75 993.607 152.75 977.797M525.078 1006.44C540.888 1006.44 553.719 993.607 553.719 977.797M525.078 1006.44H486.891C479.295 1006.44 472.01 1003.42 466.639 998.049C461.267 992.678 458.25 985.393 458.25 977.797M57.2812 977.797L57.2812 653.203M57.2812 977.797L57.2812 939.609C57.2812 923.8 70.1123 910.969 85.9219 910.969M152.75 977.797V844.141M152.75 977.797C152.75 993.607 165.581 1006.44 181.391 1006.44H429.609C445.419 1006.44 458.25 993.607 458.25 977.797M152.75 977.797V939.609C152.75 923.8 139.919 910.969 124.109 910.969M57.2812 653.203C57.2812 637.394 70.1123 624.562 85.9219 624.562M57.2812 653.203L57.2812 691.391C57.2812 707.2 70.1123 720.031 85.9219 720.031M85.9219 910.969C70.1123 910.969 57.2812 898.138 57.2812 882.328V844.141C57.2812 828.331 70.1123 815.5 85.9219 815.5M85.9219 910.969H124.109M553.719 977.797V653.203M553.719 977.797V939.609C553.719 923.8 540.888 910.969 525.078 910.969M553.719 653.203C553.719 637.394 540.888 624.562 525.078 624.562M553.719 653.203V691.391C553.719 707.2 540.888 720.031 525.078 720.031M525.078 910.969C540.888 910.969 553.719 898.138 553.719 882.328V844.141C553.719 828.331 540.888 815.5 525.078 815.5M525.078 910.969H486.891M458.25 977.797V844.141M458.25 977.797V939.609C458.25 923.8 471.081 910.969 486.891 910.969M525.078 624.562H85.9219M525.078 624.562H486.891C471.081 624.562 458.25 637.394 458.25 653.203M85.9219 624.562H124.109C139.919 624.562 152.75 637.394 152.75 653.203M458.25 653.203C458.25 637.394 445.419 624.562 429.609 624.562H181.391C165.581 624.562 152.75 637.394 152.75 653.203M458.25 653.203V691.391C458.25 698.987 461.267 706.271 466.639 711.643C472.01 717.014 479.295 720.031 486.891 720.031M458.25 653.203V786.859M525.078 720.031H486.891M525.078 720.031C540.888 720.031 553.719 732.862 553.719 748.672V786.859C553.719 802.669 540.888 815.5 525.078 815.5M152.75 653.203V691.391C152.75 707.2 139.919 720.031 124.109 720.031M152.75 653.203V786.859M85.9219 720.031H124.109M85.9219 720.031C70.1123 720.031 57.2812 732.862 57.2812 748.672V786.859C57.2812 802.669 70.1123 815.5 85.9219 815.5M124.109 720.031C139.919 720.031 152.75 732.862 152.75 748.672V786.859M85.9219 815.5H124.109M152.75 786.859C152.75 794.455 155.767 801.74 161.139 807.111C166.51 812.483 173.795 815.5 181.391 815.5M152.75 786.859C152.75 802.669 139.919 815.5 124.109 815.5M486.891 720.031C471.081 720.031 458.25 732.862 458.25 748.672V786.859M458.25 786.859C458.25 802.669 445.419 815.5 429.609 815.5M458.25 786.859C458.25 802.669 471.081 815.5 486.891 815.5M525.078 815.5H486.891M181.391 815.5H429.609M181.391 815.5C165.581 815.5 152.75 828.331 152.75 844.141M429.609 815.5C445.419 815.5 458.25 828.331 458.25 844.141M152.75 844.141V882.328C152.75 898.138 139.919 910.969 124.109 910.969M152.75 844.141C152.75 828.331 139.919 815.5 124.109 815.5M486.891 815.5C471.081 815.5 458.25 828.331 458.25 844.141M458.25 844.141V882.328C458.25 898.138 471.081 910.969 486.891 910.969" stroke="#0E0E0E" stroke-width="38.1875" stroke-linecap="round" stroke-linejoin="round"/>
<path d="M85.9219 1516.44H525.078M85.9219 1516.44C78.3259 1516.44 71.0411 1513.42 65.6699 1508.05C60.2987 1502.68 57.2812 1495.39 57.2812 1487.8M85.9219 1516.44H124.109C139.919 1516.44 152.75 1503.61 152.75 1487.8M525.078 1516.44C540.888 1516.44 553.719 1503.61 553.719 1487.8M525.078 1516.44H486.891C479.295 1516.44 472.01 1513.42 466.639 1508.05C461.267 1502.68 458.25 1495.39 458.25 1487.8M57.2812 1487.8L57.2812 1163.2M57.2812 1487.8L57.2812 1449.61C57.2812 1433.8 70.1123 1420.97 85.9219 1420.97M152.75 1487.8V1354.14M152.75 1487.8C152.75 1503.61 165.581 1516.44 181.391 1516.44H429.609C445.419 1516.44 458.25 1503.61 458.25 1487.8M152.75 1487.8V1449.61C152.75 1433.8 139.919 1420.97 124.109 1420.97M57.2812 1163.2C57.2812 1147.39 70.1123 1134.56 85.9219 1134.56M57.2812 1163.2L57.2812 1201.39C57.2812 1217.2 70.1123 1230.03 85.9219 1230.03M85.9219 1420.97C70.1123 1420.97 57.2812 1408.14 57.2812 1392.33V1354.14C57.2812 1338.33 70.1123 1325.5 85.9219 1325.5M85.9219 1420.97H124.109M553.719 1487.8V1163.2M553.719 1487.8V1449.61C553.719 1433.8 540.888 1420.97 525.078 1420.97M553.719 1163.2C553.719 1147.39 540.888 1134.56 525.078 1134.56M553.719 1163.2V1201.39C553.719 1217.2 540.888 1230.03 525.078 1230.03M525.078 1420.97C540.888 1420.97 553.719 1408.14 553.719 1392.33V1354.14C553.719 1338.33 540.888 1325.5 525.078 1325.5M525.078 1420.97H486.891M458.25 1487.8V1354.14M458.25 1487.8V1449.61C458.25 1433.8 471.081 1420.97 486.891 1420.97M525.078 1134.56H85.9219M525.078 1134.56H486.891C471.081 1134.56 458.25 1147.39 458.25 1163.2M85.9219 1134.56H124.109C139.919 1134.56 152.75 1147.39 152.75 1163.2M458.25 1163.2C458.25 1147.39 445.419 1134.56 429.609 1134.56H181.391C165.581 1134.56 152.75 1147.39 152.75 1163.2M458.25 1163.2V1201.39C458.25 1208.99 461.267 1216.27 466.639 1221.64C472.01 1227.01 479.295 1230.03 486.891 1230.03M458.25 1163.2V1296.86M525.078 1230.03H486.891M525.078 1230.03C540.888 1230.03 553.719 1242.86 553.719 1258.67V1296.86C553.719 1312.67 540.888 1325.5 525.078 1325.5M152.75 1163.2V1201.39C152.75 1217.2 139.919 1230.03 124.109 1230.03M152.75 1163.2V1296.86M85.9219 1230.03H124.109M85.9219 1230.03C70.1123 1230.03 57.2812 1242.86 57.2812 1258.67V1296.86C57.2812 1312.67 70.1123 1325.5 85.9219 1325.5M124.109 1230.03C139.919 1230.03 152.75 1242.86 152.75 1258.67V1296.86M85.9219 1325.5H124.109M152.75 1296.86C152.75 1304.46 155.767 1311.74 161.139 1317.11C166.51 1322.48 173.795 1325.5 181.391 1325.5M152.75 1296.86C152.75 1312.67 139.919 1325.5 124.109 1325.5M486.891 1230.03C471.081 1230.03 458.25 1242.86 458.25 1258.67V1296.86M458.25 1296.86C458.25 1312.67 445.419 1325.5 429.609 1325.5M458.25 1296.86C458.25 1312.67 471.081 1325.5 486.891 1325.5M525.078 1325.5H486.891M181.391 1325.5H429.609M181.391 1325.5C165.581 1325.5 152.75 1338.33 152.75 1354.14M429.609 1325.5C445.419 1325.5 458.25 1338.33 458.25 1354.14M152.75 1354.14V1392.33C152.75 1408.14 139.919 1420.97 124.109 1420.97M152.75 1354.14C152.75 1338.33 139.919 1325.5 124.109 1325.5M486.891 1325.5C471.081 1325.5 458.25 1338.33 458.25 1354.14M458.25 1354.14V1392.33C458.25 1408.14 471.081 1420.97 486.891 1420.97" stroke="#0E0E0E" stroke-width="38.1875" stroke-linecap="round" stroke-linejoin="round"/>
<path d="M85.9219 2026.44H525.078M85.9219 2026.44C78.3259 2026.44 71.0411 2023.42 65.6699 2018.05C60.2987 2012.68 57.2812 2005.39 57.2812 1997.8M85.9219 2026.44H124.109C139.919 2026.44 152.75 2013.61 152.75 1997.8M525.078 2026.44C540.888 2026.44 553.719 2013.61 553.719 1997.8M525.078 2026.44H486.891C479.295 2026.44 472.01 2023.42 466.639 2018.05C461.267 2012.68 458.25 2005.39 458.25 1997.8M57.2812 1997.8L57.2812 1673.2M57.2812 1997.8L57.2812 1959.61C57.2812 1943.8 70.1123 1930.97 85.9219 1930.97M152.75 1997.8V1864.14M152.75 1997.8C152.75 2013.61 165.581 2026.44 181.391 2026.44H429.609C445.419 2026.44 458.25 2013.61 458.25 1997.8M152.75 1997.8V1959.61C152.75 1943.8 139.919 1930.97 124.109 1930.97M57.2812 1673.2C57.2812 1657.39 70.1123 1644.56 85.9219 1644.56M57.2812 1673.2L57.2812 1711.39C57.2812 1727.2 70.1123 1740.03 85.9219 1740.03M85.9219 1930.97C70.1123 1930.97 57.2812 1918.14 57.2812 1902.33V1864.14C57.2812 1848.33 70.1123 1835.5 85.9219 1835.5M85.9219 1930.97H124.109M553.719 1997.8V1673.2M553.719 1997.8V1959.61C553.719 1943.8 540.888 1930.97 525.078 1930.97M553.719 1673.2C553.719 1657.39 540.888 1644.56 525.078 1644.56M553.719 1673.2V1711.39C553.719 1727.2 540.888 1740.03 525.078 1740.03M525.078 1930.97C540.888 1930.97 553.719 1918.14 553.719 1902.33V1864.14C553.719 1848.33 540.888 1835.5 525.078 1835.5M525.078 1930.97H486.891M458.25 1997.8V1864.14M458.25 1997.8V1959.61C458.25 1943.8 471.081 1930.97 486.891 1930.97M525.078 1644.56H85.9219M525.078 1644.56H486.891C471.081 1644.56 458.25 1657.39 458.25 1673.2M85.9219 1644.56H124.109C139.919 1644.56 152.75 1657.39 152.75 1673.2M458.25 1673.2C458.25 1657.39 445.419 1644.56 429.609 1644.56H181.391C165.581 1644.56 152.75 1657.39 152.75 1673.2M458.25 1673.2V1711.39C458.25 1718.99 461.267 1726.27 466.639 1731.64C472.01 1737.01 479.295 1740.03 486.891 1740.03M458.25 1673.2V1806.86M525.078 1740.03H486.891M525.078 1740.03C540.888 1740.03 553.719 1752.86 553.719 1768.67V1806.86C553.719 1822.67 540.888 1835.5 525.078 1835.5M152.75 1673.2V1711.39C152.75 1727.2 139.919 1740.03 124.109 1740.03M152.75 1673.2V1806.86M85.9219 1740.03H124.109M85.9219 1740.03C70.1123 1740.03 57.2812 1752.86 57.2812 1768.67V1806.86C57.2812 1822.67 70.1123 1835.5 85.9219 1835.5M124.109 1740.03C139.919 1740.03 152.75 1752.86 152.75 1768.67V1806.86M85.9219 1835.5H124.109M152.75 1806.86C152.75 1814.46 155.767 1821.74 161.139 1827.11C166.51 1832.48 173.795 1835.5 181.391 1835.5M152.75 1806.86C152.75 1822.67 139.919 1835.5 124.109 1835.5M486.891 1740.03C471.081 1740.03 458.25 1752.86 458.25 1768.67V1806.86M458.25 1806.86C458.25 1822.67 445.419 1835.5 429.609 1835.5M458.25 1806.86C458.25 1822.67 471.081 1835.5 486.891 1835.5M525.078 1835.5H486.891M181.391 1835.5H429.609M181.391 1835.5C165.581 1835.5 152.75 1848.33 152.75 1864.14M429.609 1835.5C445.419 1835.5 458.25 1848.33 458.25 1864.14M152.75 1864.14V1902.33C152.75 1918.14 139.919 1930.97 124.109 1930.97M152.75 1864.14C152.75 1848.33 139.919 1835.5 124.109 1835.5M486.891 1835.5C471.081 1835.5 458.25 1848.33 458.25 1864.14M458.25 1864.14V1902.33C458.25 1918.14 471.081 1930.97 486.891 1930.97" stroke="#0E0E0E" stroke-width="38.1875" stroke-linecap="round" stroke-linejoin="round"/>
<path d="M86.6406 2536.88H525.797M86.6406 2536.88C79.0447 2536.88 71.7598 2533.86 66.3886 2528.49C61.0175 2523.12 58 2515.83 58 2508.23M86.6406 2536.88H124.828C140.638 2536.88 153.469 2524.04 153.469 2508.23M525.797 2536.88C541.607 2536.88 554.438 2524.04 554.438 2508.23M525.797 2536.88H487.609C480.013 2536.88 472.729 2533.86 467.357 2528.49C461.986 2523.12 458.969 2515.83 458.969 2508.23M58 2508.23L58 2183.64M58 2508.23L58 2470.05C58 2454.24 70.831 2441.41 86.6406 2441.41M153.469 2508.23V2374.58M153.469 2508.23C153.469 2524.04 166.3 2536.88 182.109 2536.88H430.328C446.138 2536.88 458.969 2524.04 458.969 2508.23M153.469 2508.23V2470.05C153.469 2454.24 140.638 2441.41 124.828 2441.41M58 2183.64C58 2167.83 70.831 2155 86.6406 2155M58 2183.64L58 2221.83C58 2237.64 70.831 2250.47 86.6406 2250.47M86.6406 2441.41C70.831 2441.41 58 2428.58 58 2412.77V2374.58C58 2358.77 70.831 2345.94 86.6406 2345.94M86.6406 2441.41H124.828M554.438 2508.23V2183.64M554.438 2508.23V2470.05C554.438 2454.24 541.607 2441.41 525.797 2441.41M554.438 2183.64C554.438 2167.83 541.607 2155 525.797 2155M554.438 2183.64V2221.83C554.438 2237.64 541.607 2250.47 525.797 2250.47M525.797 2441.41C541.607 2441.41 554.438 2428.58 554.438 2412.77V2374.58C554.438 2358.77 541.607 2345.94 525.797 2345.94M525.797 2441.41H487.609M458.969 2508.23V2374.58M458.969 2508.23V2470.05C458.969 2454.24 471.8 2441.41 487.609 2441.41M525.797 2155H86.6406M525.797 2155H487.609C471.8 2155 458.969 2167.83 458.969 2183.64M86.6406 2155H124.828C140.638 2155 153.469 2167.83 153.469 2183.64M458.969 2183.64C458.969 2167.83 446.138 2155 430.328 2155H182.109C166.3 2155 153.469 2167.83 153.469 2183.64M458.969 2183.64V2221.83C458.969 2229.42 461.986 2236.71 467.357 2242.08C472.729 2247.45 480.013 2250.47 487.609 2250.47M458.969 2183.64V2317.3M525.797 2250.47H487.609M525.797 2250.47C541.607 2250.47 554.438 2263.3 554.438 2279.11V2317.3C554.438 2333.11 541.607 2345.94 525.797 2345.94M153.469 2183.64V2221.83C153.469 2237.64 140.638 2250.47 124.828 2250.47M153.469 2183.64V2317.3M86.6406 2250.47H124.828M86.6406 2250.47C70.831 2250.47 58 2263.3 58 2279.11V2317.3C58 2333.11 70.831 2345.94 86.6406 2345.94M124.828 2250.47C140.638 2250.47 153.469 2263.3 153.469 2279.11V2317.3M86.6406 2345.94H124.828M153.469 2317.3C153.469 2324.89 156.486 2332.18 161.857 2337.55C167.229 2342.92 174.513 2345.94 182.109 2345.94M153.469 2317.3C153.469 2333.11 140.638 2345.94 124.828 2345.94M487.609 2250.47C471.8 2250.47 458.969 2263.3 458.969 2279.11V2317.3M458.969 2317.3C458.969 2333.11 446.138 2345.94 430.328 2345.94M458.969 2317.3C458.969 2333.11 471.8 2345.94 487.609 2345.94M525.797 2345.94H487.609M182.109 2345.94H430.328M182.109 2345.94C166.3 2345.94 153.469 2358.77 153.469 2374.58M430.328 2345.94C446.138 2345.94 458.969 2358.77 458.969 2374.58M153.469 2374.58V2412.77C153.469 2428.58 140.638 2441.41 124.828 2441.41M153.469 2374.58C153.469 2358.77 140.638 2345.94 124.828 2345.94M487.609 2345.94C471.8 2345.94 458.969 2358.77 458.969 2374.58M458.969 2374.58V2412.77C458.969 2428.58 471.8 2441.41 487.609 2441.41" stroke="#0E0E0E" stroke-width="38.1875" stroke-linecap="round" stroke-linejoin="round"/>
<path d="M86.6406 3046.88H525.797M86.6406 3046.88C79.0447 3046.88 71.7598 3043.86 66.3886 3038.49C61.0175 3033.12 58 3025.83 58 3018.23M86.6406 3046.88H124.828C140.638 3046.88 153.469 3034.04 153.469 3018.23M525.797 3046.88C541.607 3046.88 554.438 3034.04 554.438 3018.23M525.797 3046.88H487.609C480.013 3046.88 472.729 3043.86 467.357 3038.49C461.986 3033.12 458.969 3025.83 458.969 3018.23M58 3018.23L58 2693.64M58 3018.23L58 2980.05C58 2964.24 70.831 2951.41 86.6406 2951.41M153.469 3018.23V2884.58M153.469 3018.23C153.469 3034.04 166.3 3046.88 182.109 3046.88H430.328C446.138 3046.88 458.969 3034.04 458.969 3018.23M153.469 3018.23V2980.05C153.469 2964.24 140.638 2951.41 124.828 2951.41M58 2693.64C58 2677.83 70.831 2665 86.6406 2665M58 2693.64L58 2731.83C58 2747.64 70.831 2760.47 86.6406 2760.47M86.6406 2951.41C70.831 2951.41 58 2938.58 58 2922.77V2884.58C58 2868.77 70.831 2855.94 86.6406 2855.94M86.6406 2951.41H124.828M554.438 3018.23V2693.64M554.438 3018.23V2980.05C554.438 2964.24 541.607 2951.41 525.797 2951.41M554.438 2693.64C554.438 2677.83 541.607 2665 525.797 2665M554.438 2693.64V2731.83C554.438 2747.64 541.607 2760.47 525.797 2760.47M525.797 2951.41C541.607 2951.41 554.438 2938.58 554.438 2922.77V2884.58C554.438 2868.77 541.607 2855.94 525.797 2855.94M525.797 2951.41H487.609M458.969 3018.23V2884.58M458.969 3018.23V2980.05C458.969 2964.24 471.8 2951.41 487.609 2951.41M525.797 2665H86.6406M525.797 2665H487.609C471.8 2665 458.969 2677.83 458.969 2693.64M86.6406 2665H124.828C140.638 2665 153.469 2677.83 153.469 2693.64M458.969 2693.64C458.969 2677.83 446.138 2665 430.328 2665H182.109C166.3 2665 153.469 2677.83 153.469 2693.64M458.969 2693.64V2731.83C458.969 2739.42 461.986 2746.71 467.357 2752.08C472.729 2757.45 480.013 2760.47 487.609 2760.47M458.969 2693.64V2827.3M525.797 2760.47H487.609M525.797 2760.47C541.607 2760.47 554.438 2773.3 554.438 2789.11V2827.3C554.438 2843.11 541.607 2855.94 525.797 2855.94M153.469 2693.64V2731.83C153.469 2747.64 140.638 2760.47 124.828 2760.47M153.469 2693.64V2827.3M86.6406 2760.47H124.828M86.6406 2760.47C70.831 2760.47 58 2773.3 58 2789.11V2827.3C58 2843.11 70.831 2855.94 86.6406 2855.94M124.828 2760.47C140.638 2760.47 153.469 2773.3 153.469 2789.11V2827.3M86.6406 2855.94H124.828M153.469 2827.3C153.469 2834.89 156.486 2842.18 161.857 2847.55C167.229 2852.92 174.513 2855.94 182.109 2855.94M153.469 2827.3C153.469 2843.11 140.638 2855.94 124.828 2855.94M487.609 2760.47C471.8 2760.47 458.969 2773.3 458.969 2789.11V2827.3M458.969 2827.3C458.969 2843.11 446.138 2855.94 430.328 2855.94M458.969 2827.3C458.969 2843.11 471.8 2855.94 487.609 2855.94M525.797 2855.94H487.609M182.109 2855.94H430.328M182.109 2855.94C166.3 2855.94 153.469 2868.77 153.469 2884.58M430.328 2855.94C446.138 2855.94 458.969 2868.77 458.969 2884.58M153.469 2884.58V2922.77C153.469 2938.58 140.638 2951.41 124.828 2951.41M153.469 2884.58C153.469 2868.77 140.638 2855.94 124.828 2855.94M487.609 2855.94C471.8 2855.94 458.969 2868.77 458.969 2884.58M458.969 2884.58V2922.77C458.969 2938.58 471.8 2951.41 487.609 2951.41" stroke="#0E0E0E" stroke-width="38.1875" stroke-linecap="round" stroke-linejoin="round"/>
<path d="M86.6406 3556.88H525.797M86.6406 3556.88C79.0447 3556.88 71.7598 3553.86 66.3886 3548.49C61.0175 3543.12 58 3535.83 58 3528.23M86.6406 3556.88H124.828C140.638 3556.88 153.469 3544.04 153.469 3528.23M525.797 3556.88C541.607 3556.88 554.438 3544.04 554.438 3528.23M525.797 3556.88H487.609C480.013 3556.88 472.729 3553.86 467.357 3548.49C461.986 3543.12 458.969 3535.83 458.969 3528.23M58 3528.23L58 3203.64M58 3528.23L58 3490.05C58 3474.24 70.831 3461.41 86.6406 3461.41M153.469 3528.23V3394.58M153.469 3528.23C153.469 3544.04 166.3 3556.88 182.109 3556.88H430.328C446.138 3556.88 458.969 3544.04 458.969 3528.23M153.469 3528.23V3490.05C153.469 3474.24 140.638 3461.41 124.828 3461.41M58 3203.64C58 3187.83 70.831 3175 86.6406 3175M58 3203.64L58 3241.83C58 3257.64 70.831 3270.47 86.6406 3270.47M86.6406 3461.41C70.831 3461.41 58 3448.58 58 3432.77V3394.58C58 3378.77 70.831 3365.94 86.6406 3365.94M86.6406 3461.41H124.828M554.438 3528.23V3203.64M554.438 3528.23V3490.05C554.438 3474.24 541.607 3461.41 525.797 3461.41M554.438 3203.64C554.438 3187.83 541.607 3175 525.797 3175M554.438 3203.64V3241.83C554.438 3257.64 541.607 3270.47 525.797 3270.47M525.797 3461.41C541.607 3461.41 554.438 3448.58 554.438 3432.77V3394.58C554.438 3378.77 541.607 3365.94 525.797 3365.94M525.797 3461.41H487.609M458.969 3528.23V3394.58M458.969 3528.23V3490.05C458.969 3474.24 471.8 3461.41 487.609 3461.41M525.797 3175H86.6406M525.797 3175H487.609C471.8 3175 458.969 3187.83 458.969 3203.64M86.6406 3175H124.828C140.638 3175 153.469 3187.83 153.469 3203.64M458.969 3203.64C458.969 3187.83 446.138 3175 430.328 3175H182.109C166.3 3175 153.469 3187.83 153.469 3203.64M458.969 3203.64V3241.83C458.969 3249.42 461.986 3256.71 467.357 3262.08C472.729 3267.45 480.013 3270.47 487.609 3270.47M458.969 3203.64V3337.3M525.797 3270.47H487.609M525.797 3270.47C541.607 3270.47 554.438 3283.3 554.438 3299.11V3337.3C554.438 3353.11 541.607 3365.94 525.797 3365.94M153.469 3203.64V3241.83C153.469 3257.64 140.638 3270.47 124.828 3270.47M153.469 3203.64V3337.3M86.6406 3270.47H124.828M86.6406 3270.47C70.831 3270.47 58 3283.3 58 3299.11V3337.3C58 3353.11 70.831 3365.94 86.6406 3365.94M124.828 3270.47C140.638 3270.47 153.469 3283.3 153.469 3299.11V3337.3M86.6406 3365.94H124.828M153.469 3337.3C153.469 3344.89 156.486 3352.18 161.857 3357.55C167.229 3362.92 174.513 3365.94 182.109 3365.94M153.469 3337.3C153.469 3353.11 140.638 3365.94 124.828 3365.94M487.609 3270.47C471.8 3270.47 458.969 3283.3 458.969 3299.11V3337.3M458.969 3337.3C458.969 3353.11 446.138 3365.94 430.328 3365.94M458.969 3337.3C458.969 3353.11 471.8 3365.94 487.609 3365.94M525.797 3365.94H487.609M182.109 3365.94H430.328M182.109 3365.94C166.3 3365.94 153.469 3378.77 153.469 3394.58M430.328 3365.94C446.138 3365.94 458.969 3378.77 458.969 3394.58M153.469 3394.58V3432.77C153.469 3448.58 140.638 3461.41 124.828 3461.41M153.469 3394.58C153.469 3378.77 140.638 3365.94 124.828 3365.94M487.609 3365.94C471.8 3365.94 458.969 3378.77 458.969 3394.58M458.969 3394.58V3432.77C458.969 3448.58 471.8 3461.41 487.609 3461.41" stroke="#0E0E0E" stroke-width="38.1875" stroke-linecap="round" stroke-linejoin="round"/>
<path d="M86.6406 4066.88H525.797M86.6406 4066.88C79.0447 4066.88 71.7598 4063.86 66.3886 4058.49C61.0175 4053.12 58 4045.83 58 4038.23M86.6406 4066.88H124.828C140.638 4066.88 153.469 4054.04 153.469 4038.23M525.797 4066.88C541.607 4066.88 554.438 4054.04 554.438 4038.23M525.797 4066.88H487.609C480.013 4066.88 472.729 4063.86 467.357 4058.49C461.986 4053.12 458.969 4045.83 458.969 4038.23M58 4038.23L58 3713.64M58 4038.23L58 4000.05C58 3984.24 70.831 3971.41 86.6406 3971.41M153.469 4038.23V3904.58M153.469 4038.23C153.469 4054.04 166.3 4066.88 182.109 4066.88H430.328C446.138 4066.88 458.969 4054.04 458.969 4038.23M153.469 4038.23V4000.05C153.469 3984.24 140.638 3971.41 124.828 3971.41M58 3713.64C58 3697.83 70.831 3685 86.6406 3685M58 3713.64L58 3751.83C58 3767.64 70.831 3780.47 86.6406 3780.47M86.6406 3971.41C70.831 3971.41 58 3958.58 58 3942.77V3904.58C58 3888.77 70.831 3875.94 86.6406 3875.94M86.6406 3971.41H124.828M554.438 4038.23V3713.64M554.438 4038.23V4000.05C554.438 3984.24 541.607 3971.41 525.797 3971.41M554.438 3713.64C554.438 3697.83 541.607 3685 525.797 3685M554.438 3713.64V3751.83C554.438 3767.64 541.607 3780.47 525.797 3780.47M525.797 3971.41C541.607 3971.41 554.438 3958.58 554.438 3942.77V3904.58C554.438 3888.77 541.607 3875.94 525.797 3875.94M525.797 3971.41H487.609M458.969 4038.23V3904.58M458.969 4038.23V4000.05C458.969 3984.24 471.8 3971.41 487.609 3971.41M525.797 3685H86.6406M525.797 3685H487.609C471.8 3685 458.969 3697.83 458.969 3713.64M86.6406 3685H124.828C140.638 3685 153.469 3697.83 153.469 3713.64M458.969 3713.64C458.969 3697.83 446.138 3685 430.328 3685H182.109C166.3 3685 153.469 3697.83 153.469 3713.64M458.969 3713.64V3751.83C458.969 3759.42 461.986 3766.71 467.357 3772.08C472.729 3777.45 480.013 3780.47 487.609 3780.47M458.969 3713.64V3847.3M525.797 3780.47H487.609M525.797 3780.47C541.607 3780.47 554.438 3793.3 554.438 3809.11V3847.3C554.438 3863.11 541.607 3875.94 525.797 3875.94M153.469 3713.64V3751.83C153.469 3767.64 140.638 3780.47 124.828 3780.47M153.469 3713.64V3847.3M86.6406 3780.47H124.828M86.6406 3780.47C70.831 3780.47 58 3793.3 58 3809.11V3847.3C58 3863.11 70.831 3875.94 86.6406 3875.94M124.828 3780.47C140.638 3780.47 153.469 3793.3 153.469 3809.11V3847.3M86.6406 3875.94H124.828M153.469 3847.3C153.469 3854.89 156.486 3862.18 161.857 3867.55C167.229 3872.92 174.513 3875.94 182.109 3875.94M153.469 3847.3C153.469 3863.11 140.638 3875.94 124.828 3875.94M487.609 3780.47C471.8 3780.47 458.969 3793.3 458.969 3809.11V3847.3M458.969 3847.3C458.969 3863.11 446.138 3875.94 430.328 3875.94M458.969 3847.3C458.969 3863.11 471.8 3875.94 487.609 3875.94M525.797 3875.94H487.609M182.109 3875.94H430.328M182.109 3875.94C166.3 3875.94 153.469 3888.77 153.469 3904.58M430.328 3875.94C446.138 3875.94 458.969 3888.77 458.969 3904.58M153.469 3904.58V3942.77C153.469 3958.58 140.638 3971.41 124.828 3971.41M153.469 3904.58C153.469 3888.77 140.638 3875.94 124.828 3875.94M487.609 3875.94C471.8 3875.94 458.969 3888.77 458.969 3904.58M458.969 3904.58V3942.77C458.969 3958.58 471.8 3971.41 487.609 3971.41" stroke="#0E0E0E" stroke-width="38.1875" stroke-linecap="round" stroke-linejoin="round"/>
<path d="M86.6406 4576.88H525.797M86.6406 4576.88C79.0447 4576.88 71.7598 4573.86 66.3886 4568.49C61.0175 4563.12 58 4555.83 58 4548.23M86.6406 4576.88H124.828C140.638 4576.88 153.469 4564.04 153.469 4548.23M525.797 4576.88C541.607 4576.88 554.438 4564.04 554.438 4548.23M525.797 4576.88H487.609C480.013 4576.88 472.729 4573.86 467.357 4568.49C461.986 4563.12 458.969 4555.83 458.969 4548.23M58 4548.23L58 4223.64M58 4548.23L58 4510.05C58 4494.24 70.831 4481.41 86.6406 4481.41M153.469 4548.23V4414.58M153.469 4548.23C153.469 4564.04 166.3 4576.88 182.109 4576.88H430.328C446.138 4576.88 458.969 4564.04 458.969 4548.23M153.469 4548.23V4510.05C153.469 4494.24 140.638 4481.41 124.828 4481.41M58 4223.64C58 4207.83 70.831 4195 86.6406 4195M58 4223.64L58 4261.83C58 4277.64 70.831 4290.47 86.6406 4290.47M86.6406 4481.41C70.831 4481.41 58 4468.58 58 4452.77V4414.58C58 4398.77 70.831 4385.94 86.6406 4385.94M86.6406 4481.41H124.828M554.438 4548.23V4223.64M554.438 4548.23V4510.05C554.438 4494.24 541.607 4481.41 525.797 4481.41M554.438 4223.64C554.438 4207.83 541.607 4195 525.797 4195M554.438 4223.64V4261.83C554.438 4277.64 541.607 4290.47 525.797 4290.47M525.797 4481.41C541.607 4481.41 554.438 4468.58 554.438 4452.77V4414.58C554.438 4398.77 541.607 4385.94 525.797 4385.94M525.797 4481.41H487.609M458.969 4548.23V4414.58M458.969 4548.23V4510.05C458.969 4494.24 471.8 4481.41 487.609 4481.41M525.797 4195H86.6406M525.797 4195H487.609C471.8 4195 458.969 4207.83 458.969 4223.64M86.6406 4195H124.828C140.638 4195 153.469 4207.83 153.469 4223.64M458.969 4223.64C458.969 4207.83 446.138 4195 430.328 4195H182.109C166.3 4195 153.469 4207.83 153.469 4223.64M458.969 4223.64V4261.83C458.969 4269.42 461.986 4276.71 467.357 4282.08C472.729 4287.45 480.013 4290.47 487.609 4290.47M458.969 4223.64V4357.3M525.797 4290.47H487.609M525.797 4290.47C541.607 4290.47 554.438 4303.3 554.438 4319.11V4357.3C554.438 4373.11 541.607 4385.94 525.797 4385.94M153.469 4223.64V4261.83C153.469 4277.64 140.638 4290.47 124.828 4290.47M153.469 4223.64V4357.3M86.6406 4290.47H124.828M86.6406 4290.47C70.831 4290.47 58 4303.3 58 4319.11V4357.3C58 4373.11 70.831 4385.94 86.6406 4385.94M124.828 4290.47C140.638 4290.47 153.469 4303.3 153.469 4319.11V4357.3M86.6406 4385.94H124.828M153.469 4357.3C153.469 4364.89 156.486 4372.18 161.857 4377.55C167.229 4382.92 174.513 4385.94 182.109 4385.94M153.469 4357.3C153.469 4373.11 140.638 4385.94 124.828 4385.94M487.609 4290.47C471.8 4290.47 458.969 4303.3 458.969 4319.11V4357.3M458.969 4357.3C458.969 4373.11 446.138 4385.94 430.328 4385.94M458.969 4357.3C458.969 4373.11 471.8 4385.94 487.609 4385.94M525.797 4385.94H487.609M182.109 4385.94H430.328M182.109 4385.94C166.3 4385.94 153.469 4398.77 153.469 4414.58M430.328 4385.94C446.138 4385.94 458.969 4398.77 458.969 4414.58M153.469 4414.58V4452.77C153.469 4468.58 140.638 4481.41 124.828 4481.41M153.469 4414.58C153.469 4398.77 140.638 4385.94 124.828 4385.94M487.609 4385.94C471.8 4385.94 458.969 4398.77 458.969 4414.58M458.969 4414.58V4452.77C458.969 4468.58 471.8 4481.41 487.609 4481.41" stroke="#0E0E0E" stroke-width="38.1875" stroke-linecap="round" stroke-linejoin="round"/>
</svg>
