<svg width="44" height="44" viewBox="0 0 44 44" fill="none" xmlns="http://www.w3.org/2000/svg">
<g clip-path="url(#clip0_74_2)">
<path d="M22 3.9655C27.874 3.9655 28.5707 3.9875 30.8917 4.09383C36.8537 4.36517 39.6385 7.194 39.9098 13.112C40.0162 15.4312 40.0363 16.1278 40.0363 22.0018C40.0363 27.8777 40.0143 28.5725 39.9098 30.8917C39.6367 36.8042 36.8592 39.6385 30.8917 39.9098C28.5707 40.0162 27.8777 40.0382 22 40.0382C16.126 40.0382 15.4293 40.0162 13.1102 39.9098C7.1335 39.6367 4.36333 36.795 4.092 30.8898C3.98567 28.5707 3.96367 27.8758 3.96367 22C3.96367 16.126 3.9875 15.4312 4.092 13.1102C4.36517 7.194 7.14267 4.36333 13.1102 4.092C15.4312 3.9875 16.126 3.9655 22 3.9655ZM22 0C16.0252 0 15.2772 0.0256666 12.9305 0.132C4.94083 0.498667 0.5005 4.93167 0.133833 12.9287C0.0256667 15.2772 0 16.0252 0 22C0 27.9748 0.0256666 28.7247 0.132 31.0713C0.498667 39.061 4.93167 43.5013 12.9287 43.868C15.2772 43.9743 16.0252 44 22 44C27.9748 44 28.7247 43.9743 31.0713 43.868C39.0537 43.5013 43.505 39.0683 43.8662 31.0713C43.9743 28.7247 44 27.9748 44 22C44 16.0252 43.9743 15.2772 43.868 12.9305C43.5087 4.94817 39.0702 0.5005 31.0732 0.133833C28.7247 0.0256667 27.9748 0 22 0ZM22 10.703C15.7612 10.703 10.703 15.7612 10.703 22C10.703 28.2388 15.7612 33.2988 22 33.2988C28.2388 33.2988 33.297 28.2407 33.297 22C33.297 15.7612 28.2388 10.703 22 10.703ZM22 29.3333C17.9502 29.3333 14.6667 26.0517 14.6667 22C14.6667 17.9502 17.9502 14.6667 22 14.6667C26.0498 14.6667 29.3333 17.9502 29.3333 22C29.3333 26.0517 26.0498 29.3333 22 29.3333ZM33.7443 7.6175C32.285 7.6175 31.1025 8.8 31.1025 10.2575C31.1025 11.715 32.285 12.8975 33.7443 12.8975C35.2018 12.8975 36.3825 11.715 36.3825 10.2575C36.3825 8.8 35.2018 7.6175 33.7443 7.6175Z" fill="#0E0E0E"/>
</g>
<defs>
<clipPath id="clip0_74_2">
<rect width="44" height="44" fill="white"/>
</clipPath>
</defs>
</svg>
