<svg width="59" height="59" viewBox="0 0 59 59" fill="none" xmlns="http://www.w3.org/2000/svg">
<path d="M53.4687 16.5937V42.4062C53.4687 43.8732 52.886 45.2801 51.8487 46.3174C50.8114 47.3547 49.4045 47.9375 47.9375 47.9375H11.0625C9.59552 47.9375 8.18863 47.3547 7.15132 46.3174C6.114 45.2801 5.53125 43.8732 5.53125 42.4062V16.5937M53.4687 16.5937C53.4687 15.1268 52.886 13.7199 51.8487 12.6826C50.8114 11.6453 49.4045 11.0625 47.9375 11.0625H11.0625C9.59552 11.0625 8.18863 11.6453 7.15132 12.6826C6.114 13.7199 5.53125 15.1268 5.53125 16.5937M53.4687 16.5937V17.1911C53.4689 18.1355 53.2272 19.0641 52.7667 19.8886C52.3063 20.7131 51.6424 21.406 50.8383 21.9013L32.4008 33.2465C31.5286 33.7837 30.5244 34.0682 29.5 34.0682C28.4756 34.0682 27.4714 33.7837 26.5992 33.2465L8.16167 21.9037C7.3576 21.4085 6.69372 20.7156 6.23327 19.8911C5.77283 19.0666 5.53115 18.1379 5.53125 17.1936V16.5937" stroke="#0E0E0E" stroke-width="4" stroke-linecap="round" stroke-linejoin="round"/>
</svg>
